<?xml version="1.0" standalone="no"?>
<!DOCTYPE svg PUBLIC "-//W3C//DTD SVG 20010904//EN"
 "http://www.w3.org/TR/2001/REC-SVG-20010904/DTD/svg10.dtd">
<svg version="1.0" xmlns="http://www.w3.org/2000/svg"
 width="256.000000pt" height="256.000000pt" viewBox="0 0 256.000000 256.000000"
 preserveAspectRatio="xMidYMid meet">
<metadata>
Created by potrace 1.16, written by Peter Selinger 2001-2019
</metadata>
<g transform="translate(0.000000,256.000000) scale(0.100000,-0.100000)"
fill="#000000" stroke="none">
<path d="M1250 2541 c-5 -11 -10 -37 -10 -59 l0 -38 -116 -18 c-262 -39 -458
-134 -642 -310 -106 -101 -169 -185 -231 -306 -62 -120 -95 -227 -117 -374
l-18 -116 -38 0 c-49 0 -78 -15 -78 -40 0 -25 29 -40 78 -40 l38 0 18 -116
c39 -262 134 -458 310 -642 101 -106 185 -169 306 -231 120 -62 227 -95 374
-117 l116 -18 0 -38 c0 -49 15 -78 40 -78 25 0 40 29 40 78 l0 38 116 18 c147
22 254 55 374 117 121 62 205 125 306 231 176 184 271 380 310 642 l18 116 38
0 c49 0 78 15 78 40 0 25 -29 40 -78 40 l-38 0 -18 116 c-22 147 -55 254 -117
374 -62 121 -125 205 -231 306 -184 176 -380 271 -642 310 l-116 18 0 38 c0
49 -15 78 -40 78 -11 0 -24 -9 -30 -19z m-8 -207 c7 -58 70 -57 76 1 l4 28 71
-6 c161 -13 374 -93 514 -193 84 -60 197 -173 257 -257 100 -140 180 -353 193
-514 l6 -71 -28 -4 c-58 -7 -58 -69 0 -76 l28 -4 -6 -71 c-13 -161 -93 -374
-193 -514 -60 -84 -173 -197 -257 -257 -140 -100 -353 -180 -514 -193 l-71 -6
-4 28 c-7 58 -69 58 -76 0 l-4 -28 -71 6 c-161 13 -374 93 -514 193 -84 60
-197 173 -257 257 -100 140 -180 353 -193 514 l-6 71 28 4 c58 7 58 69 0 76
l-28 4 6 71 c13 161 93 374 192 513 59 82 164 188 246 249 151 112 392 202
546 204 49 1 52 -1 55 -25z"/>
<path d="M1100 2179 c-187 -40 -331 -119 -466 -253 -137 -138 -214 -282 -253
-473 -12 -55 -21 -133 -21 -173 0 -153 53 -335 141 -483 56 -94 202 -240 296
-296 148 -88 330 -141 483 -141 40 0 118 9 173 21 191 39 335 116 473 253 138
138 214 281 254 476 49 237 -8 499 -156 706 -61 86 -109 127 -134 114 -31 -17
-24 -44 26 -102 234 -271 269 -662 87 -973 -61 -106 -192 -237 -298 -298 -265
-155 -585 -155 -850 0 -106 61 -237 192 -298 298 -155 265 -155 585 0 850 61
106 192 237 298 299 144 84 305 123 470 113 133 -8 210 -29 332 -89 115 -55
138 -58 138 -13 0 27 -8 33 -92 78 -183 95 -410 128 -603 86z"/>
<path d="M1018 1959 c-117 -13 -230 -96 -268 -196 -24 -64 -26 -152 -5 -241
19 -78 36 -112 92 -181 50 -62 50 -64 14 -186 -39 -129 -21 -326 40 -447 16
-32 40 -65 54 -74 34 -22 75 -21 95 4 18 22 53 116 94 254 21 68 35 97 65 128
33 35 44 40 81 40 37 0 48 -5 81 -40 30 -31 44 -60 65 -128 41 -138 76 -232
94 -254 20 -25 61 -26 95 -4 14 9 38 42 54 74 61 121 79 318 40 447 -36 122
-36 124 14 186 56 69 73 103 92 181 29 122 11 250 -43 314 -33 39 -111 92
-160 109 -105 34 -245 14 -308 -46 -20 -19 -21 -19 -45 -1 -67 52 -144 72
-241 61z m142 -93 c19 -9 44 -24 55 -32 20 -15 19 -16 -13 -45 -18 -16 -44
-29 -58 -29 -36 0 -64 -17 -64 -39 0 -31 26 -44 73 -37 57 9 98 35 139 89 18
25 55 60 82 78 44 31 55 34 120 33 85 -1 152 -30 209 -93 42 -47 51 -85 45
-184 -6 -85 -32 -149 -86 -215 -22 -26 -44 -57 -51 -69 -17 -33 -13 -87 10
-145 27 -65 37 -236 20 -318 -14 -68 -59 -167 -70 -154 -4 5 -24 63 -44 129
-47 157 -60 187 -104 236 -48 53 -81 69 -143 69 -62 0 -95 -16 -143 -69 -44
-49 -57 -79 -104 -236 -20 -66 -40 -124 -44 -129 -11 -13 -56 86 -70 154 -17
83 -7 254 20 313 23 54 27 116 10 150 -7 12 -29 43 -51 69 -54 66 -80 130 -86
215 -6 96 3 137 41 179 82 94 210 127 307 80z"/>
</g>
</svg>
